<?xml version="1.0" encoding="UTF-8" standalone="no"?>
<svg
   inkscape:version="1.2.2 (732a01da63, 2022-12-09)"
   sodipodi:docname="geopins.svg"
   viewBox="0 0 171.5 198.032"
   height="198.032"
   width="171.5"
   xml:space="preserve"
   id="svg3713"
   version="1.1"
   inkscape:export-filename="geopins.png"
   inkscape:export-xdpi="300"
   inkscape:export-ydpi="300"
   xmlns:inkscape="http://www.inkscape.org/namespaces/inkscape"
   xmlns:sodipodi="http://sodipodi.sourceforge.net/DTD/sodipodi-0.dtd"
   xmlns="http://www.w3.org/2000/svg"
   xmlns:svg="http://www.w3.org/2000/svg"
   xmlns:rdf="http://www.w3.org/1999/02/22-rdf-syntax-ns#"
   xmlns:cc="http://creativecommons.org/ns#"
   xmlns:dc="http://purl.org/dc/elements/1.1/"><metadata
     id="metadata3719"><rdf:RDF><cc:Work
         rdf:about=""><dc:format>image/svg+xml</dc:format><dc:type
           rdf:resource="http://purl.org/dc/dcmitype/StillImage" /></cc:Work></rdf:RDF></metadata><defs
     id="defs3717"><inkscape:path-effect
       effect="envelope"
       id="path-effect6991"
       is_visible="true"
       lpeversion="1"
       yy="true"
       xx="true"
       bendpath1="M 0,56.808085 126.4922,45.1767"
       bendpath2="M 125.75064,25.616724 125.50909,140.66201"
       bendpath3="M 5.73705,141.77272 140.008,127.85952"
       bendpath4="M 15.210376,42.797822 14.5822,123.0284"
       bendpath1-nodetypes="cc"
       bendpath3-nodetypes="cc"
       bendpath2-nodetypes="cc"
       bendpath4-nodetypes="cc" /><inkscape:path-effect
       effect="bend_path"
       id="path-effect3459"
       is_visible="true"
       lpeversion="1"
       bendpath="m 32.591905,44.940948 c 21.110671,-11.267286 24.868246,-15.8602 61.68974,-14.25182"
       prop_scale="1"
       scale_y_rel="false"
       vertical="false"
       hide_knot="false"
       bendpath-nodetypes="cc" /><inkscape:path-effect
       effect="lattice2"
       gridpoint0="18.581642,23.589128"
       gridpoint1="94.281645,23.589128"
       gridpoint2="18.581642,37.789128"
       gridpoint3="94.281645,37.789128"
       gridpoint4="37.506643,23.589128"
       gridpoint5="75.356644,23.589128"
       gridpoint6="37.506643,37.789128"
       gridpoint7="75.356644,37.789128"
       gridpoint8x9="56.431643,23.589128"
       gridpoint10x11="56.431643,37.789128"
       gridpoint12="18.581642,27.139128"
       gridpoint13="94.281645,27.139128"
       gridpoint14="18.581642,34.239128"
       gridpoint15="94.281645,34.239128"
       gridpoint16="37.506643,27.139128"
       gridpoint17="75.356644,27.139128"
       gridpoint18="37.506643,34.239128"
       gridpoint19="75.356644,34.239128"
       gridpoint20x21="56.431643,27.139128"
       gridpoint22x23="56.431643,34.239128"
       gridpoint24x26="18.581642,30.689128"
       gridpoint25x27="94.281645,30.689128"
       gridpoint28x30="37.506643,30.689128"
       gridpoint29x31="75.356644,30.689128"
       gridpoint32x33x34x35="56.431643,30.689128"
       id="path-effect3373"
       is_visible="true"
       lpeversion="1"
       horizontal_mirror="false"
       vertical_mirror="false"
       perimetral="false"
       live_update="true" /><inkscape:path-effect
       effect="skeletal"
       id="path-effect3371"
       is_visible="true"
       lpeversion="1"
       pattern="M 0,0 H 1"
       copytype="single_stretched"
       prop_scale="1"
       scale_y_rel="false"
       spacing="0"
       normal_offset="0"
       tang_offset="0"
       prop_units="false"
       vertical_pattern="false"
       hide_knot="false"
       fuse_tolerance="0" /><inkscape:path-effect
       effect="skeletal"
       id="path-effect3292"
       is_visible="true"
       lpeversion="1"
       pattern="M 0,0 H 1"
       copytype="single_stretched"
       prop_scale="1"
       scale_y_rel="false"
       spacing="0"
       normal_offset="0"
       tang_offset="0"
       prop_units="false"
       vertical_pattern="false"
       hide_knot="false"
       fuse_tolerance="0" /><inkscape:path-effect
       effect="envelope"
       id="path-effect3194"
       is_visible="true"
       lpeversion="1"
       yy="false"
       xx="false"
       bendpath1="m 38.425324,-61.3438 72.967106,14.799932"
       bendpath2="m 110.4262,-52.902523 7.12893,12.152003"
       bendpath3="m 41.62509,-43.007105 69.76734,17.080607"
       bendpath4="m 35.692427,-44.206498 v 18.28"
       bendpath1-nodetypes="cc"
       bendpath3-nodetypes="cc"
       bendpath2-nodetypes="cc" /><clipPath
       clipPathUnits="userSpaceOnUse"
       id="clipPath393"><g
         id="g397"
         transform="translate(-70.8542,-141.5447)"><path
           inkscape:connector-curvature="0"
           id="path395"
           d="M 0,154.596 H 140.008 V 0 H 0 Z" /></g></clipPath><clipPath
       clipPathUnits="userSpaceOnUse"
       id="clipPath399"><g
         id="g403"
         transform="translate(-97.406,-45.5706)"><path
           inkscape:connector-curvature="0"
           id="path401"
           d="M 0,154.596 H 140.008 V 0 H 0 Z" /></g></clipPath><clipPath
       clipPathUnits="userSpaceOnUse"
       id="clipPath405"><g
         id="g409"
         transform="translate(-94.6257,-45.3704)"><path
           inkscape:connector-curvature="0"
           id="path407"
           d="M 0,154.596 H 140.008 V 0 H 0 Z" /></g></clipPath><clipPath
       clipPathUnits="userSpaceOnUse"
       id="clipPath411"><g
         id="g415"
         transform="translate(-88.5261,-45.5603)"><path
           inkscape:connector-curvature="0"
           id="path413"
           d="M 0,154.596 H 140.008 V 0 H 0 Z" /></g></clipPath><clipPath
       clipPathUnits="userSpaceOnUse"
       id="clipPath417"><g
         id="g421"
         transform="translate(-84.3669,-41.4026)"><path
           inkscape:connector-curvature="0"
           id="path419"
           d="M 0,154.596 H 140.008 V 0 H 0 Z" /></g></clipPath><clipPath
       clipPathUnits="userSpaceOnUse"
       id="clipPath423"><g
         id="g427"
         transform="translate(-80.2058,-45.5603)"><path
           inkscape:connector-curvature="0"
           id="path425"
           d="M 0,154.596 H 140.008 V 0 H 0 Z" /></g></clipPath><clipPath
       clipPathUnits="userSpaceOnUse"
       id="clipPath429"><g
         id="g433"><path
           inkscape:connector-curvature="0"
           id="path431"
           d="M 0,154.596 H 140.008 V 0 H 0 Z" /></g></clipPath><clipPath
       clipPathUnits="userSpaceOnUse"
       id="clipPath435"><g
         id="g439"><path
           inkscape:connector-curvature="0"
           id="path437"
           d="M 0,154.596 H 140.008 V 0 H 0 Z" /></g></clipPath><clipPath
       clipPathUnits="userSpaceOnUse"
       id="clipPath441"><g
         id="g445"
         transform="translate(-69.7654,-45.5603)"><path
           inkscape:connector-curvature="0"
           id="path443"
           d="M 0,154.596 H 140.008 V 0 H 0 Z" /></g></clipPath><clipPath
       clipPathUnits="userSpaceOnUse"
       id="clipPath447"><g
         id="g451"
         transform="translate(-67.2458,-47.6892)"><path
           inkscape:connector-curvature="0"
           id="path449"
           d="M 0,154.596 H 140.008 V 0 H 0 Z" /></g></clipPath><clipPath
       clipPathUnits="userSpaceOnUse"
       id="clipPath453"><g
         id="g457"
         transform="translate(-62.8376,-41.4026)"><path
           inkscape:connector-curvature="0"
           id="path455"
           d="M 0,154.596 H 140.008 V 0 H 0 Z" /></g></clipPath><clipPath
       clipPathUnits="userSpaceOnUse"
       id="clipPath459"><g
         id="g463"
         transform="translate(-61.9236,-46.2503)"><path
           inkscape:connector-curvature="0"
           id="path461"
           d="M 0,154.596 H 140.008 V 0 H 0 Z" /></g></clipPath><clipPath
       clipPathUnits="userSpaceOnUse"
       id="clipPath465"><g
         id="g469"
         transform="translate(-54.3142,-46.2503)"><path
           inkscape:connector-curvature="0"
           id="path467"
           d="M 0,154.596 H 140.008 V 0 H 0 Z" /></g></clipPath><clipPath
       clipPathUnits="userSpaceOnUse"
       id="clipPath471"><g
         id="g475"
         transform="translate(-46.7038,-46.2503)"><path
           inkscape:connector-curvature="0"
           id="path473"
           d="M 0,154.596 H 140.008 V 0 H 0 Z" /></g></clipPath><clipPath
       clipPathUnits="userSpaceOnUse"
       id="clipPath477"><g
         id="g481"
         transform="translate(-79.3152,-76.4485)"><path
           inkscape:connector-curvature="0"
           id="path479"
           d="M 0,154.596 H 140.008 V 0 H 0 Z" /></g></clipPath><inkscape:path-effect
       effect="bend_path"
       id="path-effect3459-9"
       is_visible="true"
       lpeversion="1"
       bendpath="M 33.487422,44.474386 C 52.367749,31.809263 56.064356,27.922995 94.623257,29.151873"
       prop_scale="1"
       scale_y_rel="false"
       vertical="false"
       hide_knot="false"
       bendpath-nodetypes="cc" /><inkscape:path-effect
       effect="skeletal"
       id="path-effect3292-4"
       is_visible="true"
       lpeversion="1"
       pattern="M 0,0 H 1"
       copytype="single_stretched"
       prop_scale="1"
       scale_y_rel="false"
       spacing="0"
       normal_offset="0"
       tang_offset="0"
       prop_units="false"
       vertical_pattern="false"
       hide_knot="false"
       fuse_tolerance="0" /></defs><sodipodi:namedview
     inkscape:document-rotation="0"
     inkscape:current-layer="g3721"
     inkscape:window-maximized="1"
     inkscape:window-y="-8"
     inkscape:window-x="1912"
     inkscape:cy="-10.476105"
     inkscape:cx="-189.48086"
     inkscape:zoom="1.0977362"
     showgrid="false"
     id="namedview3715"
     inkscape:window-height="1002"
     inkscape:window-width="1920"
     inkscape:pageshadow="2"
     inkscape:pageopacity="0"
     guidetolerance="10"
     gridtolerance="10"
     objecttolerance="10"
     borderopacity="1"
     bordercolor="#666666"
     pagecolor="#ffffff"
     inkscape:showpageshadow="2"
     inkscape:pagecheckerboard="0"
     inkscape:deskcolor="#d1d1d1" /><g
     transform="matrix(1.3333333,0,0,-1.3333333,-8.4995998,202.08159)"
     inkscape:label="FOLIO_Sticker_Hexagon_FINAL_OL"
     inkscape:groupmode="layer"
     id="g3721"><g
       transform="translate(134.9997,40.1682)"
       id="g3723"
       style="fill:#378467;fill-opacity:1"><path
         inkscape:connector-curvature="0"
         id="path3725"
         style="fill:#378467;fill-opacity:1;fill-rule:nonzero;stroke:none"
         d="m 0,0 v 74.262 l -64.313,37.131 -64.312,-37.131 V 0 l 64.312,-37.131 z" /></g><g
       id="g3369"
       transform="translate(-3.2663098,9.2736654)"
       inkscape:path-effect="#path-effect3459-9"
       class="UnoptimicedTransforms"
       style="fill:#cedef8;fill-opacity:1"><g
         aria-label="geopins"
         transform="matrix(1,0,0,-1,-17.110785,-2.3373705)"
         id="text341"
         style="font-weight:bold;font-size:20px;line-height:0.8;font-family:Roboto;-inkscape-font-specification:'Roboto Bold';fill:#cedef8;stroke-width:1.266;stroke-linejoin:round;fill-opacity:1"
         inkscape:path-effect="#path-effect3292-4"
         class="UnoptimicedTransforms"><path
           d="m 51.54056,-48.371136 0.178191,-0.265792 c 0.512822,-0.764933 1.154836,-1.462427 1.928377,-1.909507 0.667925,-0.39236 1.411089,-0.624306 2.128697,-0.615478 0,0 1e-6,0 1e-6,0 0.709848,0.004 1.386433,0.21398 1.942976,0.5912 0.505311,0.342496 0.991463,0.762931 1.17758,1.37649 0.124795,0.411398 0.206303,0.852516 0.154289,1.309515 10e-7,0 0,1e-6 10e-7,1e-6 0.08378,0.05624 0.167518,0.112393 0.251209,0.168451 l 0.667387,-0.997511 c 0.574011,0.384588 1.145116,0.764273 1.714148,1.13771 l -1e-6,10e-7 -6.400095,9.76931 c -0.324376,0.495137 -0.79217,0.91735 -1.33209,1.063415 -0.535371,0.154199 -1.088634,0.02426 -1.519094,-0.262773 -1.618792,-1.07942 -3.194627,-2.155976 -4.743475,-3.203894 l 10e-7,-2e-6 1.231662,-1.823331 c 1.349416,0.912531 2.711633,1.841962 4.097077,2.771467 0.2269,0.15223 0.563597,0.03374 0.73851,-0.227624 l 1.435144,-2.144484 c -0.08592,-0.05748 -0.171784,-0.11499 -0.2576,-0.172529 -0.246353,0.130273 -0.507256,0.215325 -0.768608,0.279024 -0.334397,0.07086 -0.669191,0.04732 -0.987803,-0.0144 -0.44394,-0.08599 -0.840065,-0.302415 -1.205451,-0.550095 -10e-7,0 -2e-6,-1e-6 -3e-6,-1e-6 -0.558676,-0.378703 -1.00441,-0.919441 -1.275023,-1.565318 -0.258692,-0.66284 -0.318956,-1.430411 -0.208832,-2.192582 0.13447,-0.886761 0.536746,-1.751476 1.052825,-2.521266 0,0 0,0 0,0 z m 2.176723,4.803707 c 0.504199,0.341343 1.153517,0.476355 1.792671,0.316842 0.686336,-0.171288 1.2879,-0.723023 1.711903,-1.35676 l 0.111232,-0.166251 c 0.424103,-0.633887 0.714336,-1.402677 0.609533,-2.09633 -0.08088,-0.65181 -0.449287,-1.195536 -0.950332,-1.534829 -0.500291,-0.338783 -1.147935,-0.474389 -1.788139,-0.317702 -1e-6,0 -1e-6,0 -2e-6,0 -0.689144,0.158732 -1.293331,0.714707 -1.721426,1.346852 l -0.112171,0.165637 0,10e-7 c -0.427426,0.631157 -0.711135,1.397434 -0.613689,2.097302 0.09079,0.652067 0.456204,1.203883 0.960421,1.545238 0,0 -10e-7,0 -10e-7,0 z"
           style="font-weight:normal;font-family:'Space Grotesk';-inkscape-font-specification:'Space Grotesk, @wght=700';font-variation-settings:'wght' 700;fill:#cedef8;fill-opacity:1"
           id="path3179"
           inkscape:original-d="m 35.692427,-34.846498 v -0.32 q 0,-1.56 0.62,-2.66 0.62,-1.12 1.64,-1.7 1.04,-0.6 2.26,-0.6 1.36,0 2.06,0.48 0.7,0.48 1.02,1 h 0.36 v -1.2 h 2.48 v 11.68 q 0,1.02 -0.6,1.62 -0.6,0.62 -1.6,0.62 h -6.64 v -2.2 h 5.76 q 0.56,0 0.56,-0.6 v -2.58 h -0.36 q -0.2,0.32 -0.56,0.66 -0.36,0.32 -0.96,0.54 -0.6,0.22 -1.52,0.22 -1.22,0 -2.26,-0.58 -1.02,-0.6 -1.64,-1.7 -0.62,-1.12 -0.62,-2.68 z m 5.24,2.76 q 1.16,0 1.94,-0.74 0.78,-0.74 0.78,-2.08 v -0.2 q 0,-1.36 -0.78,-2.08 -0.76,-0.74 -1.94,-0.74 -1.16,0 -1.94,0.74 -0.78,0.72 -0.78,2.08 v 0.2 q 0,1.34 0.78,2.08 0.78,0.74 1.94,0.74 z" /><path
           d="m 61.581156,-35.636678 c -0.202748,-0.117089 -0.397526,-0.248719 -0.581075,-0.394543 0,0 0,0 0,0 -0.451841,-0.359791 -0.834049,-0.80488 -1.098849,-1.329888 -0.331241,-0.694959 -0.452427,-1.506108 -0.361275,-2.31996 0.118666,-0.903988 0.504497,-1.788398 1.008494,-2.58016 l 0,0 0.128843,-0.202408 c 10e-7,0 10e-7,-1e-6 2e-6,-1e-6 0.5015,-0.787841 1.13288,-1.505656 1.881217,-2.003359 0.671626,-0.452962 1.425745,-0.724838 2.141841,-0.763767 0.56044,-0.03885 1.093806,0.05965 1.578267,0.251849 0,0 0,0 0,0 0.176557,0.06868 0.346488,0.150575 0.508856,0.243633 0,0 10e-7,10e-7 10e-7,10e-7 0.584334,0.334899 1.079936,0.834193 1.371199,1.511268 0.281042,0.62728 0.390891,1.401512 0.329831,2.194758 -0.06213,0.87681 -0.339378,1.774663 -0.740204,2.601095 l -0.375368,0.773943 c -1.396882,-0.678017 -2.7672,-1.420769 -4.110383,-2.212137 -0.403566,-0.237909 -0.805457,-0.479212 -1.205924,-0.723506 0,1e-6 -10e-7,2e-6 -10e-7,2e-6 -0.308366,0.545298 -0.436159,1.190508 -0.304977,1.7556 0.07293,0.314166 0.21618,0.596905 0.409759,0.83446 0.16202,0.198347 0.359066,0.364795 0.578698,0.49111 0.419766,0.241417 0.916999,0.422546 1.40857,0.262064 10e-7,0 2e-6,0 3e-6,-1e-6 0.378031,-0.123413 0.741904,-0.318176 1.059242,-0.588537 0.347625,0.592725 0.709067,1.18264 1.085806,1.768872 -0.356134,0.285966 -0.749289,0.506412 -1.153604,0.698698 -0.503831,0.241093 -1.050603,0.336021 -1.590373,0.344789 -0.705705,-0.0023 -1.369983,-0.268172 -1.968596,-0.613875 z m 1.46864,-6.548965 c 0.38838,0.236728 0.777632,0.47021 1.167996,0.700055 0.70371,0.413668 1.413461,0.813256 2.129164,1.196236 0.213595,-0.483653 0.281855,-1.029366 0.163322,-1.481724 -0.119492,-0.488468 -0.447966,-0.842862 -0.835994,-1.065857 0,0 0,0 0,0 -0.164276,-0.09441 -0.343063,-0.17045 -0.531251,-0.217037 -0.27143,-0.06917 -0.562183,-0.07892 -0.856739,0.0038 -0.461736,0.129692 -0.901888,0.452563 -1.236498,0.864515 z"
           style="font-weight:normal;font-family:'Space Grotesk';-inkscape-font-specification:'Space Grotesk, @wght=700';font-variation-settings:'wght' 700;fill:#cedef8;fill-opacity:1"
           id="path3181"
           inkscape:original-d="m 53.452436,-29.646498 q -1.48,0 -2.62,-0.62 -1.12,-0.64 -1.76,-1.78 -0.62,-1.16 -0.62,-2.72 v -0.24 q 0,-1.56 0.62,-2.7 0.62,-1.16 1.74,-1.78 1.12,-0.64 2.6,-0.64 1.46,0 2.54,0.66 1.08,0.64 1.68,1.8 0.6,1.14 0.6,2.66 v 0.86 h -7.22 q 0.04,1.02 0.76,1.66 0.72,0.64 1.76,0.64 1.06,0 1.56,-0.46 0.5,-0.46 0.76,-1.02 l 2.06,1.08 q -0.28,0.52 -0.82,1.14 -0.52,0.6 -1.4,1.04 -0.88,0.42 -2.24,0.42 z m -2.42,-6.38 h 4.64 q -0.08,-0.86 -0.7,-1.38 -0.6,-0.52 -1.58,-0.52 -1.02,0 -1.62,0.52 -0.6,0.52 -0.74,1.38 z" /><path
           d="m 71.313308,-31.180282 c -0.805768,-0.271343 -1.54333,-0.739246 -2.082362,-1.399504 -0.506435,-0.620328 -0.804881,-1.407477 -0.863878,-2.240216 l 0,-2e-6 c -0.06516,-0.919664 0.18879,-1.871306 0.578456,-2.739039 l 0.131057,-0.291846 0,-2e-6 c 0.390779,-0.870212 0.930551,-1.685941 1.6024,-2.285798 0.604736,-0.539936 1.295834,-0.912848 1.958723,-1.067336 0.708996,-0.165232 1.392302,-0.109674 2.00936,0.09593 0.389243,0.129697 0.758343,0.321098 1.090931,0.581801 0.200222,0.157891 0.389214,0.340423 0.562815,0.549213 0.437856,0.526609 0.766167,1.242599 0.923758,2.03859 0.175088,0.884364 0.113161,1.859569 -0.100628,2.788412 l 0,2e-6 -0.07169,0.311479 0,2e-6 c -0.213157,0.926097 -0.58524,1.836973 -1.191336,2.530708 0,10e-7 0,10e-7 -10e-7,10e-7 -0.548769,0.628119 -1.260471,1.076697 -2.037657,1.268281 -0.305812,0.07539 -0.617959,0.113779 -0.931163,0.118657 -0.536678,0.0048 -1.072055,-0.08869 -1.578782,-0.259334 z m 0.712559,-2.121975 c 0.511807,0.172038 1.087601,0.155702 1.596278,-0.08273 0.07569,-0.03561 0.149839,-0.07606 0.222049,-0.121452 0.615593,-0.398403 0.998164,-1.146732 1.207007,-1.901179 l 0.05333,-0.192635 c 0.207692,-0.750287 0.265077,-1.581293 9.95e-4,-2.225099 -0.0299,-0.07861 -0.06368,-0.153871 -0.100904,-0.225682 -0.240494,-0.467826 -0.6303,-0.788129 -1.070112,-0.935082 -0.505151,-0.168786 -1.102201,-0.108711 -1.64144,0.220368 -10e-7,10e-7 -10e-7,10e-7 -10e-7,10e-7 -0.596462,0.353469 -1.051031,1.05111 -1.337253,1.774887 l 0,10e-7 -0.07349,0.185838 -1e-6,10e-7 c -0.287849,0.727891 -0.433562,1.555572 -0.181999,2.243861 0.233865,0.614552 0.736679,1.060964 1.325548,1.258905 -10e-7,-10e-7 -10e-7,-10e-7 -10e-7,-10e-7 z"
           style="font-weight:normal;font-family:'Space Grotesk';-inkscape-font-specification:'Space Grotesk, @wght=700';font-variation-settings:'wght' 700;fill:#cedef8;fill-opacity:1"
           id="path3183"
           inkscape:original-d="m 65.19243,-29.646498 q -1.48,0 -2.66,-0.6 -1.18,-0.6 -1.86,-1.74 -0.68,-1.14 -0.68,-2.74 v -0.32 q 0,-1.6 0.68,-2.74 0.68,-1.14 1.86,-1.74 1.18,-0.6 2.66,-0.6 1.48,0 2.66,0.6 1.18,0.6 1.86,1.74 0.68,1.14 0.68,2.74 v 0.32 q 0,1.6 -0.68,2.74 -0.68,1.14 -1.86,1.74 -1.18,0.6 -2.66,0.6 z m 0,-2.24 q 1.16,0 1.92,-0.74 0.76,-0.76 0.76,-2.16 v -0.2 q 0,-1.4 -0.76,-2.14 -0.74,-0.76 -1.92,-0.76 -1.16,0 -1.92,0.76 -0.76,0.74 -0.76,2.14 v 0.2 q 0,1.4 0.76,2.16 0.76,0.74 1.92,0.74 z" /><path
           d="m 77.274029,-25.808165 2.624819,-13.658288 c 0.61261,0.116251 1.232546,0.221696 1.859205,0.317783 l -0.185521,1.1855 c 1e-6,0 1e-6,0 1e-6,10e-7 0.09282,0.01429 0.185764,0.02837 0.278831,0.04226 0.258048,-0.393027 0.605014,-0.68167 0.964967,-0.89326 10e-7,0 2e-6,-10e-7 2e-6,0 0.513968,-0.317294 1.095841,-0.322162 1.649672,-0.259741 0.601601,0.0678 1.187823,0.334775 1.682729,0.776037 0.517139,0.446343 0.917497,1.101321 1.175284,1.829474 1e-6,10e-7 1e-6,10e-7 1e-6,2e-6 0.306543,0.865873 0.374433,1.841688 0.304591,2.79379 l -0.02343,0.319349 c -0.06968,0.949851 -0.279155,1.910081 -0.736883,2.714095 -0.388201,0.681887 -0.92558,1.262415 -1.57549,1.614441 -0.626837,0.32703 -1.332472,0.454046 -2.019797,0.374866 -10e-7,0 -2e-6,0 -2e-6,0 -0.456398,-0.05258 -0.913494,-0.157627 -1.320764,-0.385444 -0.29742,-0.158284 -0.577993,-0.361741 -0.794408,-0.635385 -10e-7,-10e-7 -10e-7,-10e-7 -2e-6,-3e-6 -0.161959,-0.230798 -0.304773,-0.478637 -0.4087,-0.748184 0,0 -10e-7,0 -2e-6,0 -0.104559,-0.01589 -0.209104,-0.03203 -0.313635,-0.04841 l -0.792004,5.07838 c -0.787172,-0.124859 -1.577206,-0.263439 -2.369468,-0.417259 z m 5.592992,-5.109605 c 0.614933,0.07577 1.264049,-0.09872 1.751421,-0.548322 0.548066,-0.505942 0.800872,-1.330119 0.87635,-2.126864 l 0.01888,-0.199337 c 0.07498,-0.791501 -0.01653,-1.643144 -0.428808,-2.235163 -0.363915,-0.537519 -0.909279,-0.861009 -1.475778,-0.929736 -0.566829,-0.06877 -1.16759,0.115529 -1.645744,0.548789 -0.536865,0.473799 -0.833907,1.276653 -0.956652,2.06101 l -10e-7,10e-7 -0.03092,0.197583 c -0.123616,0.789921 -0.08365,1.649431 0.324555,2.274131 0.369007,0.548692 0.952343,0.88221 1.566693,0.957908 z"
           style="font-weight:normal;font-family:'Space Grotesk';-inkscape-font-specification:'Space Grotesk, @wght=700';font-variation-settings:'wght' 700;fill:#cedef8;fill-opacity:1"
           id="path3185"
           inkscape:original-d="m 72.71242,-25.926498 v -13.92 h 2.48 v 1.2 h 0.36 q 0.34,-0.58 1.06,-1.02 0.72,-0.46 2.06,-0.46 1.2,0 2.22,0.6 1.02,0.58 1.64,1.72 0.62,1.14 0.62,2.76 v 0.32 q 0,1.62 -0.62,2.76 -0.62,1.14 -1.64,1.74 -1.02,0.58 -2.22,0.58 -0.9,0 -1.52,-0.22 -0.6,-0.2 -0.98,-0.52 -0.36,-0.34 -0.58,-0.68 h -0.36 v 5.14 z m 5.2,-5.92 q 1.18,0 1.94,-0.74 0.78,-0.76 0.78,-2.2 v -0.2 q 0,-1.44 -0.78,-2.18 -0.78,-0.76 -1.94,-0.76 -1.16,0 -1.94,0.76 -0.78,0.74 -0.78,2.18 v 0.2 q 0,1.44 0.78,2.2 0.78,0.74 1.94,0.74 z" /><path
           d="m 89.284298,-28.434977 0.572376,-9.902211 c 0.683495,0.0401 1.368633,0.07487 2.05538,0.104757 10e-7,0 10e-7,0 10e-7,0 l -0.42845,9.907819 0,10e-7 c -0.732653,-0.0316 -1.465767,-0.06824 -2.199307,-0.110366 z"
           style="font-weight:normal;font-family:'Space Grotesk';-inkscape-font-specification:'Space Grotesk, @wght=700';font-variation-settings:'wght' 700;fill:#cedef8;fill-opacity:1"
           id="path3187"
           sodipodi:nodetypes="ccccc"
           inkscape:original-d="m 85.47243,-29.926498 v -9.92 h 2.52 v 9.92 z" /><path
           d="m 93.924044,-28.237338 0.283093,-9.912952 c 0.679324,0.01927 1.36017,0.0343 2.042504,0.04551 l -0.0219,1.299545 c 0.09974,0.0016 0.199517,0.0032 0.299314,0.0047 0,0 10e-7,-1e-6 10e-7,-1e-6 0.162496,-0.404717 0.452384,-0.717105 0.760108,-0.970123 0.471073,-0.404222 1.083737,-0.470332 1.66148,-0.468728 10e-7,0 2e-6,0 3e-6,0 0.585682,0.0016 1.180167,0.165119 1.680597,0.538474 0.4854,0.340738 0.8853,0.854392 1.14809,1.452609 0.29526,0.658036 0.4177,1.41138 0.42513,2.156531 l 0,10e-7 0.059,5.921048 c -0.72729,0.0071 -1.45522,0.01141 -2.18374,0.01242 l -0.009,-5.72044 c 0,-1e-6 0,-2e-6 0,-3e-6 -9.8e-4,-0.606234 -0.113515,-1.251096 -0.473499,-1.679682 -0.331183,-0.408906 -0.831195,-0.561052 -1.306383,-0.563902 -0.566355,-0.0034 -1.148072,0.246848 -1.515304,0.76519 0,10e-7 -10e-7,10e-7 -10e-7,2e-6 -0.418436,0.575622 -0.559305,1.371196 -0.57198,2.131214 0,10e-7 0,2e-6 0,3e-6 l -0.08402,5.038263 c -0.730558,-0.01232 -1.461649,-0.02873 -2.193237,-0.04968 z"
           style="font-weight:normal;font-family:'Space Grotesk';-inkscape-font-specification:'Space Grotesk, @wght=700';font-variation-settings:'wght' 700;fill:#cedef8;fill-opacity:1"
           id="path3189"
           inkscape:original-d="m 90.792445,-29.926498 v -9.92 h 2.48 v 1.3 h 0.36 q 0.24,-0.52 0.9,-0.98 0.66,-0.48 2,-0.48 1.16,0 2.02,0.54 0.88,0.52 1.36,1.46 0.479995,0.92 0.479995,2.16 v 5.92 h -2.519995 v -5.72 q 0,-1.12 -0.56,-1.68 -0.54,-0.56 -1.56,-0.56 -1.16,0 -1.8,0.78 -0.64,0.76 -0.64,2.14 v 5.04 z" /><path
           d="m 108.1766,-28.002148 c -0.95939,0.02539 -1.95412,-0.167385 -2.76138,-0.776175 -0.70512,-0.531763 -1.18033,-1.420443 -1.3327,-2.3772 0.6593,-0.210719 1.31733,-0.423463 1.97441,-0.637855 l 0,-1e-6 c 0.0759,0.391943 0.19637,0.782959 0.41841,1.091368 0.19389,0.253705 0.44223,0.451221 0.7173,0.563469 0.30152,0.104091 0.61759,0.144726 0.9313,0.136449 0.38763,-0.01023 0.7996,-0.05922 1.10727,-0.330602 0.20411,-0.191947 0.34647,-0.483375 0.33757,-0.790217 -0.008,-0.282424 -0.15116,-0.550641 -0.36248,-0.690053 -0.33092,-0.23689 -0.72413,-0.319188 -1.10609,-0.389967 -0.16043,-0.02913 -0.32083,-0.05833 -0.48118,-0.08761 -0.55649,-0.110485 -1.10664,-0.270672 -1.63501,-0.501845 -0.45316,-0.210374 -0.87567,-0.525691 -1.19503,-0.956587 0,-1e-6 0,-1e-6 0,-2e-6 -0.32106,-0.433197 -0.45963,-1.019576 -0.4694,-1.592423 -0.0149,-0.869645 0.28676,-1.756669 0.8695,-2.277277 0.66482,-0.609095 1.53019,-0.833081 2.37412,-0.854501 0.81514,-0.02069 1.65875,0.156328 2.35499,0.675862 0,10e-7 0,10e-7 0,2e-6 0.59263,0.442224 1.06737,1.117016 1.28327,1.902494 -0.65664,0.260409 -1.31314,0.520199 -1.96986,0.77898 -0.0881,-0.42209 -0.27483,-0.839014 -0.5912,-1.064233 0,0 0,-1e-6 0,-1e-6 -0.30306,-0.224873 -0.67015,-0.302152 -1.02595,-0.293097 -0.3238,0.0082 -0.66309,0.0607 -0.92503,0.282811 -0.1914,0.149931 -0.31233,0.415226 -0.30614,0.687493 0.007,0.288655 0.14232,0.568626 0.35606,0.712215 0.28641,0.176058 0.60715,0.259717 0.92636,0.317488 0.15964,0.02928 0.31933,0.05848 0.47909,0.08761 0.58801,0.10721 1.17213,0.261524 1.73622,0.491751 0.473,0.176832 0.92538,0.467995 1.25782,0.902491 0.35031,0.427181 0.49473,1.035964 0.51344,1.624736 0.0294,0.926709 -0.28305,1.871725 -0.90169,2.449659 -0.71109,0.660464 -1.65716,0.890505 -2.57399,0.914772 z"
           style="font-weight:normal;font-family:'Space Grotesk';-inkscape-font-specification:'Space Grotesk, @wght=700';font-variation-settings:'wght' 700;fill:#cedef8;fill-opacity:1"
           id="path3191"
           inkscape:original-d="m 107.23243,-29.646498 q -1.94,0 -3.18,-0.84 -1.24,-0.84 -1.5,-2.4 l 2.32,-0.6 q 0.14,0.7 0.46,1.1 0.34,0.4 0.82,0.58 0.5,0.16 1.08,0.16 0.88,0 1.3,-0.3 0.42,-0.32 0.42,-0.78 0,-0.46 -0.4,-0.7 -0.4,-0.26 -1.28,-0.42 l -0.56,-0.1 q -1.04,-0.2 -1.9,-0.54 -0.86,-0.36 -1.38,-0.98 -0.52,-0.62 -0.52,-1.6 0,-1.48 1.08,-2.26 1.08,-0.8 2.84,-0.8 1.66,0 2.76,0.74 1.1,0.74 1.44,1.94 l -2.34,0.72 q -0.16,-0.76 -0.66,-1.08 -0.48,-0.32 -1.2,-0.32 -0.72,0 -1.1,0.26 -0.38,0.24 -0.38,0.68 0,0.48 0.4,0.72 0.4,0.22 1.08,0.34 l 0.56,0.1 q 1.12,0.2 2.02,0.54 0.92,0.32 1.44,0.94 0.54,0.6 0.54,1.64 0,1.56 -1.14,2.42 -1.12,0.84 -3.02,0.84 z" /></g></g><text
       xml:space="preserve"
       style="font-weight:bold;font-size:83.0003px;line-height:0.8;font-family:Roboto;-inkscape-font-specification:'Roboto Bold';fill:#cedef8;fill-opacity:1;stroke:none;stroke-width:1.266;stroke-linejoin:round;stroke-opacity:1"
       x="26.529816"
       y="-72.089195"
       id="text6536"
       transform="scale(1,-1)"><tspan
         sodipodi:role="line"
         id="tspan6534"
         style="stroke-width:1.266" /></text><g
       id="g6989"
       inkscape:path-effect="#path-effect6991"
       class="UnoptimicedTransforms"
       style="stroke:#cedef8;stroke-opacity:1"><path
         id="path4125"
         style="font-variation-settings:'wght' 700;fill:none;fill-opacity:1;stroke:#cedef8;stroke-width:1.266;stroke-linejoin:round;stroke-opacity:1"
         d="M 35.110059,63.308154 C 61.810134,74.58105 104.41964,88.102949 126.05336,106.90557"
         inkscape:original-d="M 40.928881 60.022127 L 125.4922 108.8447 " /><path
         id="path4125-3"
         style="font-variation-settings:'wght' 700;fill:none;fill-opacity:1;stroke:#cedef8;stroke-width:1.266;stroke-linejoin:round;stroke-opacity:1"
         d="m 48.004924,57.625579 c 26.333021,7.713769 58.292556,14.907402 77.150006,29.555086"
         inkscape:original-d="M 54.975241 51.894603 L 125.44363 92.579478 " /><path
         id="path6947"
         style="font-variation-settings:'wght' 700;fill:none;fill-opacity:1;stroke:#cedef8;stroke-width:1.2666;stroke-linejoin:round;stroke-opacity:1"
         d="M 63.395428,50.958478 C 86.006821,54.638262 109.8021,57.354636 125.4615,65.29872"
         inkscape:original-d="M 70.757922,42.750889 125.4925,74.451933" /><path
         id="path6888"
         style="font-variation-settings:'wght' 700;fill:none;fill-opacity:1;stroke:#cedef8;stroke-width:1.27129;stroke-linejoin:round;stroke-dasharray:none;stroke-opacity:1"
         d="M 14.345622,71.232053 C 25.802802,68.059677 47.086774,57.91466 63.744042,50.921888"
         inkscape:original-d="M 15.216323,74.908746 71.064574,42.743674" /><path
         id="path6503"
         style="font-variation-settings:'wght' 700;fill:none;fill-opacity:1;stroke:#cedef8;stroke-width:1.266;stroke-linejoin:round;stroke-opacity:1"
         d="m 22.511093,68.496458 c 26.57993,16.30589 61.004099,28.926136 91.174187,46.707242"
         inkscape:original-d="M 25.978748 68.673583 L 110.52486 117.48595 " /><path
         id="path6565"
         style="font-variation-settings:'wght' 700;fill:none;fill-opacity:1;stroke:#cedef8;stroke-width:1.266;stroke-linejoin:round;stroke-opacity:1"
         d="M 15.126777,76.239223 C 38.589754,97.583698 64.194222,110.02537 98.911981,124.08625"
         inkscape:original-d="M 15.715198 81.151462 L 94.587414 126.68803 " /><path
         id="path6940"
         style="font-variation-settings:'wght' 700;fill:none;fill-opacity:1;stroke:#cedef8;stroke-width:1.266;stroke-linejoin:round;stroke-opacity:1"
         d="m 14.940561,92.187357 c 16.685627,19.218373 39.25412,32.906903 67.731856,41.562963"
         inkscape:original-d="M 15.715199 99.436478 L 78.752611 135.83088 " /><path
         id="path6952"
         style="font-variation-settings:'wght' 700;fill:none;fill-opacity:1;stroke:#cedef8;stroke-width:1.266;stroke-linejoin:round;stroke-opacity:1"
         d="M 14.617028,101.61965 C 36.286463,95.902342 73.992965,74.824521 100.00674,57.088955"
         inkscape:original-d="M 16.2152 108.8447 L 100.72345 60.053918 " /><path
         id="path6930"
         style="font-variation-settings:'wght' 700;fill:none;fill-opacity:1;stroke:#cedef8;stroke-width:1.266;stroke-linejoin:round;stroke-opacity:1"
         d="M 15.580901,86.046575 C 32.203392,81.788534 61.030354,66.445563 83.254552,54.141645"
         inkscape:original-d="M 16.166632 92.579475 L 86.544066 51.947115 " /><path
         id="path6957"
         style="font-variation-settings:'wght' 700;fill:none;fill-opacity:1;stroke:#cedef8;stroke-width:1.266;stroke-linejoin:round;stroke-opacity:1"
         d="M 27.562555,114.89223 C 53.193939,103.8218 91.464542,81.679572 115.97604,61.359032"
         inkscape:original-d="M 31.133705 117.45807 L 115.57298 68.707379 " /><path
         id="path4125-9-3"
         style="font-variation-settings:'wght' 700;fill:none;fill-opacity:1;stroke:#cedef8;stroke-width:1.266;stroke-linejoin:round;stroke-opacity:1"
         d="M 44.326978,126.74361 C 71.159535,112.07929 104.72298,92.688007 125.73251,73.130256"
         inkscape:original-d="M 47.121084 126.68739 L 125.9922 81.151464 " /><path
         id="path4125-9-3-3"
         style="font-variation-settings:'wght' 700;fill:none;fill-opacity:1;stroke:#cedef8;stroke-width:1.266;stroke-linejoin:round;stroke-opacity:1"
         d="M 63.566098,135.68702 C 85.543774,122.27394 110.53432,108.2755 125.79963,95.626779"
         inkscape:original-d="M 62.955884 135.83025 L 125.9922 99.436479 " /></g><g
       id="g6963"
       transform="matrix(0.84682739,-0.14326817,0.13316463,0.88462619,4.6443659,17.423748)"
       style="fill:#cedef8;fill-opacity:1"><circle
         style="fill:#cedef8;fill-opacity:1;stroke:none;stroke-width:1.92652;stroke-linejoin:round;stroke-opacity:1"
         id="path1912"
         cx="70.853699"
         cy="-101.67983"
         transform="scale(1,-1)"
         r="29.590643" /><path
         id="rect4480"
         style="fill:#cedef8;fill-opacity:1;stroke-width:1.266;stroke-linejoin:round"
         d="M 96.263009,86.514969 45.347254,86.678918 70.687202,44.206498 Z"
         sodipodi:nodetypes="cccc" /><ellipse
         style="font-variation-settings:'wght' 700;fill:#378467;fill-opacity:1;stroke:none;stroke-width:1.17407;stroke-linejoin:round;stroke-opacity:1"
         id="path3517"
         cx="70.80513"
         cy="-99.883743"
         transform="scale(1,-1)"
         rx="14.178076"
         ry="14.786795" /></g><path
       style="font-variation-settings:'wght' 700;fill:none;fill-opacity:1;stroke:#cedef8;stroke-width:4.1160001;stroke-linejoin:round;stroke-dasharray:none;stroke-opacity:1"
       d="m 16.2152,108.8447 54.639,31.545 54.638,-31.545 V 45.753702 L 70.8542,14.208701 16.2152,45.753702 Z"
       id="path8034" /></g></svg>
